<?xml version="1.0" encoding="UTF-8" standalone="no"?>
<svg
   xmlns:dc="http://purl.org/dc/elements/1.1/"
   xmlns:cc="http://creativecommons.org/ns#"
   xmlns:rdf="http://www.w3.org/1999/02/22-rdf-syntax-ns#"
   xmlns:svg="http://www.w3.org/2000/svg"
   xmlns="http://www.w3.org/2000/svg"
   id="svg8"
   version="1.1"
   viewBox="0 0 43.900002 50.799999"
   height="50.799999mm"
   width="43.900002mm">
  <defs
     id="defs2" />
  <metadata
     id="metadata5">
    <rdf:RDF>
      <cc:Work
         rdf:about="">
        <dc:format>image/svg+xml</dc:format>
        <dc:type
           rdf:resource="http://purl.org/dc/dcmitype/StillImage" />
        <dc:title></dc:title>
      </cc:Work>
    </rdf:RDF>
  </metadata>
  <g
     transform="translate(-352.88284,-16.40184)"
     id="layer1">
    <path
       style="opacity:1;vector-effect:none;fill:#3280a0;fill-opacity:1;stroke:none;stroke-width:6;stroke-linecap:round;stroke-linejoin:round;stroke-miterlimit:4;stroke-dasharray:none;stroke-dashoffset:0;stroke-opacity:1"
       id="path822"
       d="m 332.61908,-35.607689 -87.08148,-50.276514 0,-100.553027 87.08148,-50.27652 87.08148,50.27651 0,100.553033 z"
       transform="matrix(0.25206279,0,0,0.25260302,290.99195,76.196449)" />
    <text
       id="text814"
       y="51.094933"
       x="355.33246"
       style="font-style:normal;font-weight:normal;font-size:34.35424423px;line-height:1.25;font-family:sans-serif;letter-spacing:0px;word-spacing:0px;opacity:1;fill:#669db3;fill-opacity:1;stroke:none;stroke-width:0.85885608"
       xml:space="preserve"><tspan
         style="font-style:normal;font-variant:normal;font-weight:normal;font-stretch:normal;font-family:Calibri;-inkscape-font-specification:Calibri;fill:#669db3;fill-opacity:1;stroke-width:0.85885608"
         y="51.094933"
         x="355.33246"
         id="tspan812">';--</tspan></text>
    <path
       d="m 363.37792,51.766408 q 0.0179,0.031 0.0159,0.06325 -0.002,0.03225 -0.0319,0.07015 -0.0321,0.03401 -0.0935,0.07983 -0.0553,0.0474 -0.14839,0.101145 -0.1008,0.0582 -0.16953,0.08241 -0.0665,0.02801 -0.112,0.0388 -0.0477,0.0069 -0.0767,-0.0074 -0.029,-0.01435 -0.0469,-0.04535 l -1.28486,-2.225434 -2.28359,1.318435 1.28485,2.225434 q 0.0179,0.031 0.0159,0.06325 -0.002,0.03225 -0.0319,0.07015 -0.0321,0.03401 -0.0935,0.07983 -0.0553,0.0474 -0.15226,0.103385 -0.0931,0.05372 -0.16566,0.08017 -0.0704,0.03026 -0.11588,0.04104 -0.0478,0.0069 -0.0767,-0.0074 -0.029,-0.01435 -0.0469,-0.04535 l -2.78013,-4.815317 q -0.0179,-0.031 -0.0158,-0.06325 0.002,-0.03225 0.0341,-0.06625 0.0299,-0.0379 0.0912,-0.08373 0.0592,-0.04966 0.15226,-0.10338 0.0969,-0.05597 0.16567,-0.08017 0.0704,-0.03026 0.11812,-0.03714 0.0455,-0.01079 0.0744,0.0036 0.029,0.01435 0.0469,0.04535 l 1.1595,2.008321 2.2836,-1.318435 -1.15951,-2.008321 q -0.0179,-0.031 -0.0159,-0.06325 0.002,-0.03225 0.0341,-0.06625 0.0299,-0.0379 0.0874,-0.08149 0.0553,-0.0474 0.15614,-0.10562 0.0931,-0.05373 0.16179,-0.07793 0.0704,-0.03026 0.11812,-0.03714 0.0455,-0.01079 0.0745,0.0036 0.029,0.01435 0.0469,0.04535 z"
       style="font-style:normal;font-variant:normal;font-weight:normal;font-stretch:normal;font-size:medium;line-height:1.25;font-family:Calibri;-inkscape-font-specification:Calibri;letter-spacing:-0.44722876px;word-spacing:0px;fill:#ffffff;fill-opacity:1;stroke:none;stroke-width:0.22921497"
       id="path840" />
    <path
       d="m 364.99118,50.834994 q 0.0179,0.031 0.0159,0.06325 -0.002,0.03225 -0.0319,0.07015 -0.0321,0.03401 -0.0935,0.07984 -0.0553,0.04741 -0.15226,0.10338 -0.093,0.05372 -0.16566,0.08017 -0.0704,0.03026 -0.11587,0.04104 -0.0478,0.0069 -0.0767,-0.0074 -0.029,-0.01435 -0.0469,-0.04535 l -2.78013,-4.815318 q -0.0179,-0.031 -0.0159,-0.06325 0.006,-0.0345 0.038,-0.06845 0.0337,-0.04015 0.0912,-0.08374 0.0592,-0.04966 0.14838,-0.10114 0.0969,-0.05596 0.16566,-0.08017 0.0704,-0.03026 0.11813,-0.03714 0.0455,-0.0108 0.0744,0.0036 0.029,0.01435 0.0469,0.04535 z"
       style="font-style:normal;font-variant:normal;font-weight:normal;font-stretch:normal;font-size:medium;line-height:1.25;font-family:Calibri;-inkscape-font-specification:Calibri;letter-spacing:-0.44722876px;word-spacing:0px;fill:#ffffff;fill-opacity:1;stroke:none;stroke-width:0.22921497"
       id="path842" />
    <path
       d="m 368.47247,47.041624 q 0.13654,0.236503 0.19093,0.473905 0.056,0.231281 0.0392,0.452953 -0.0168,0.221634 -0.10247,0.431356 -0.0818,0.207487 -0.22866,0.400831 -0.14298,0.191091 -0.33934,0.361333 -0.19472,0.164148 -0.47774,0.327553 l -1.31046,0.75659 q -0.0892,0.05148 -0.20414,0.04038 -0.1133,-0.01726 -0.20062,-0.168492 l -2.58314,-4.474138 q -0.0873,-0.1512 -0.0434,-0.254112 0.0456,-0.109007 0.13479,-0.160497 l 1.13986,-0.6581 q 0.44974,-0.259655 0.78589,-0.339997 0.33616,-0.08034 0.62014,-0.02719 0.28787,0.05092 0.52135,0.231456 0.23347,0.180543 0.40582,0.479071 0.10297,0.178349 0.15429,0.365838 0.0514,0.187439 0.0467,0.376272 -0.003,0.182698 -0.0683,0.365129 -0.0614,0.180195 -0.18394,0.343994 0.22788,-0.07984 0.46665,-0.07816 0.23654,-0.0022 0.46014,0.08069 0.22748,0.08061 0.42813,0.249091 0.20062,0.168491 0.34836,0.424376 z m -2.30022,-1.66507 q -0.1052,-0.18222 -0.24066,-0.300448 -0.13547,-0.118229 -0.30222,-0.156359 -0.169,-0.04201 -0.3748,0.0044 -0.20582,0.04643 -0.49272,0.21207 l -0.69012,0.39844 0.9379,1.624491 0.7599,-0.43873 q 0.25977,-0.149975 0.38068,-0.307655 0.11866,-0.161577 0.15844,-0.334435 0.0375,-0.176751 -0.003,-0.354819 -0.0391,-0.184179 -0.13315,-0.347018 z m 1.62085,2.108997 q -0.12983,-0.224873 -0.30201,-0.352912 -0.1683,-0.13029 -0.37501,-0.166031 -0.20285,-0.03796 -0.44579,0.02475 -0.24129,0.05663 -0.55533,0.237942 l -0.79867,0.461115 1.02072,1.767948 0.96927,-0.559605 q 0.22875,-0.13207 0.36799,-0.28486 0.13924,-0.15279 0.20676,-0.331319 0.0691,-0.184661 0.051,-0.38615 -0.0181,-0.201509 -0.13895,-0.410871 z"
       style="font-style:normal;font-variant:normal;font-weight:normal;font-stretch:normal;font-size:medium;line-height:1.25;font-family:Calibri;-inkscape-font-specification:Calibri;letter-spacing:-0.44722876px;word-spacing:0px;fill:#ffffff;fill-opacity:1;stroke:none;stroke-width:0.22921497"
       id="path844" />
    <path
       d="m 370.96939,42.787857 q 0.21713,0.37608 0.26766,0.750117 0.0505,0.374046 -0.059,0.721584 -0.10563,0.345307 -0.37579,0.656359 -0.26627,0.308821 -0.73152,0.577431 l -0.56993,0.32905 1.0431,1.806711 q 0.0179,0.031 0.012,0.0655 -0.002,0.03225 -0.0319,0.07015 -0.0282,0.03176 -0.0896,0.0776 -0.0553,0.04741 -0.15226,0.10338 -0.0969,0.05596 -0.16954,0.08241 -0.0665,0.02801 -0.11199,0.0388 -0.0478,0.0069 -0.0767,-0.0074 -0.029,-0.01435 -0.0469,-0.04535 l -2.67268,-4.629218 q -0.0895,-0.155079 -0.0462,-0.267992 0.0434,-0.112905 0.14417,-0.17111 l 1.07395,-0.620045 q 0.16284,-0.09401 0.31912,-0.163573 0.1579,-0.07569 0.38636,-0.145585 0.23013,-0.07594 0.5111,-0.07279 0.28263,-0.0029 0.53293,0.09036 0.25029,0.09328 0.46438,0.285014 0.21571,0.185623 0.37911,0.468648 z m -0.6704,0.459455 q -0.17684,-0.306288 -0.41178,-0.444628 -0.23107,-0.140567 -0.45986,-0.142882 -0.22492,-0.0046 -0.42281,0.07351 -0.194,0.07586 -0.36459,0.174353 l -0.61646,0.35591 1.16174,2.012193 0.60095,-0.346955 q 0.30241,-0.1746 0.4554,-0.366269 0.15686,-0.193909 0.21418,-0.407982 0.0551,-0.217922 0.0152,-0.448188 -0.0421,-0.23416 -0.17195,-0.459023 z"
       style="font-style:normal;font-variant:normal;font-weight:normal;font-stretch:normal;font-size:medium;line-height:1.25;font-family:Calibri;-inkscape-font-specification:Calibri;letter-spacing:-0.44722876px;word-spacing:0px;fill:#ffffff;fill-opacity:1;stroke:none;stroke-width:0.22921497"
       id="path846" />
    <path
       d="m 376.39021,39.596114 q 0.0156,0.02711 0.0303,0.07041 0.0146,0.0433 0.0288,0.112584 l 0.88643,3.908079 q 0.013,0.04931 0.001,0.0922 -0.008,0.04056 -0.0451,0.08299 -0.0337,0.0401 -0.10898,0.08879 -0.073,0.05254 -0.18936,0.119714 -0.12019,0.0694 -0.20611,0.108606 -0.0859,0.03921 -0.14526,0.05281 -0.0555,0.01135 -0.0945,-0.0024 -0.0389,-0.01366 -0.0729,-0.04575 l -2.19445,-2.10867 -0.0279,-0.0304 0.0124,0.0394 0.78321,2.923455 q 0.013,0.04931 0.001,0.0922 -0.008,0.04056 -0.049,0.08525 -0.0414,0.0446 -0.12062,0.0955 -0.073,0.05254 -0.18936,0.119719 -0.12019,0.06939 -0.20223,0.106365 -0.0782,0.03476 -0.13752,0.04833 -0.0555,0.01135 -0.0944,-0.0024 -0.0389,-0.01366 -0.0729,-0.04575 l -2.93352,-2.726189 q -0.053,-0.047 -0.0831,-0.08129 -0.0302,-0.0343 -0.0458,-0.0614 -0.0202,-0.0349 -0.0158,-0.06325 0.002,-0.03225 0.0303,-0.064 0.0299,-0.0379 0.0896,-0.0776 0.06,-0.03926 0.14921,-0.09076 0.10856,-0.06267 0.17897,-0.09294 0.0679,-0.03458 0.112,-0.0388 0.0416,-0.0085 0.0728,0.0097 0.029,0.01435 0.0607,0.04255 l 2.50224,2.391049 0.0279,0.0304 -0.0124,-0.0394 -0.88938,-3.322234 q -0.0124,-0.0394 -0.0103,-0.07165 0.004,-0.03831 0.0319,-0.07015 0.0259,-0.03565 0.0818,-0.07312 0.0575,-0.04359 0.15446,-0.09957 0.093,-0.05373 0.1557,-0.0795 0.064,-0.03234 0.10813,-0.03656 0.0416,-0.0085 0.0705,0.0058 0.029,0.01435 0.0547,0.04085 l 2.49896,2.403275 0.028,0.0304 -0.0167,-0.0369 -0.83123,-3.355809 q -0.0124,-0.0394 -0.0103,-0.07165 0.004,-0.03831 0.0319,-0.07015 0.0299,-0.0379 0.0896,-0.0776 0.0614,-0.04584 0.16221,-0.104044 0.0931,-0.05373 0.14932,-0.0816 0.0602,-0.03014 0.10038,-0.03209 0.0438,-0.0046 0.0666,0.0081 0.0267,0.01045 0.0469,0.04535 z"
       style="font-style:normal;font-variant:normal;font-weight:normal;font-stretch:normal;font-size:medium;line-height:1.25;font-family:Calibri;-inkscape-font-specification:Calibri;letter-spacing:-0.44722876px;word-spacing:0px;fill:#ffffff;fill-opacity:1;stroke:none;stroke-width:0.22921497"
       id="path848" />
    <path
       d="m 381.82149,41.123184 q 0.0179,0.031 0.0159,0.06325 -0.004,0.02835 -0.0303,0.064 -0.0259,0.03565 -0.0835,0.07926 -0.0575,0.0436 -0.15058,0.09733 -0.0969,0.05596 -0.16346,0.08398 -0.0665,0.02801 -0.11038,0.03266 -0.0439,0.0046 -0.0706,-0.0058 -0.029,-0.01435 -0.0469,-0.04535 L 380.00214,39.4493 q -0.17236,-0.298536 -0.32407,-0.453907 -0.15171,-0.15537 -0.31701,-0.235702 -0.16528,-0.08033 -0.34902,-0.0673 -0.17988,0.01078 -0.36598,0.118229 -0.24038,0.138785 -0.38226,0.448163 -0.14189,0.309375 -0.21526,0.791133 l 1.40797,2.438676 q 0.0179,0.031 0.0158,0.06325 -0.004,0.02835 -0.0303,0.064 -0.0259,0.03565 -0.0835,0.07926 -0.0575,0.04359 -0.15446,0.09957 -0.0931,0.05373 -0.15958,0.08174 -0.0665,0.02801 -0.11426,0.0349 -0.0439,0.0046 -0.0706,-0.0058 -0.0251,-0.0166 -0.043,-0.0476 l -2.01458,-3.489364 q -0.0179,-0.031 -0.0175,-0.0571 -0.002,-0.03 0.0241,-0.06565 0.0237,-0.03955 0.0757,-0.07478 0.0498,-0.03914 0.13895,-0.09061 0.0853,-0.04925 0.14408,-0.07279 0.0602,-0.03014 0.10263,-0.02819 0.0399,-0.0024 0.065,0.0142 0.0267,0.01045 0.0446,0.04145 l 0.26637,0.461375 q 0.10439,-0.499668 0.30787,-0.818756 0.20511,-0.325208 0.50365,-0.497568 0.34894,-0.20146 0.65484,-0.217809 0.30752,-0.02247 0.56901,0.0902 0.26149,0.112671 0.47797,0.344371 0.21812,0.225594 0.43301,0.597794 z"
       style="font-style:normal;font-variant:normal;font-weight:normal;font-stretch:normal;font-size:medium;line-height:1.25;font-family:Calibri;-inkscape-font-specification:Calibri;letter-spacing:-0.44722876px;word-spacing:0px;fill:#ffffff;fill-opacity:1;stroke:none;stroke-width:0.22921497"
       id="path850" />
    <path
       d="m 384.48417,37.058033 q 0.0873,0.151208 0.0478,0.261863 -0.0379,0.104557 -0.13479,0.160497 l -2.28747,1.32067 q 0.16788,0.290785 0.36039,0.489809 0.19241,0.199073 0.4244,0.287413 0.23195,0.08837 0.50056,0.05219 0.26859,-0.03618 0.58263,-0.217494 0.24813,-0.14326 0.41959,-0.293983 0.16921,-0.154615 0.27971,-0.28556 0.11435,-0.133222 0.18114,-0.223479 0.0684,-0.09633 0.11496,-0.123189 0.0271,-0.01565 0.0555,-0.01135 0.03,-0.0018 0.0573,0.01865 0.0273,0.02041 0.0602,0.06856 0.0346,0.04201 0.075,0.111816 0.0291,0.0504 0.048,0.09117 0.0167,0.0369 0.0264,0.07261 0.0122,0.02911 0.01,0.0616 0.002,0.03 -0.008,0.06666 -0.008,0.0306 -0.0838,0.141432 -0.0778,0.106945 -0.21768,0.249735 -0.13987,0.142761 -0.34071,0.305252 -0.19471,0.164148 -0.44285,0.307408 -0.43035,0.248465 -0.82542,0.316308 -0.39119,0.0656 -0.74872,-0.04331 -0.35754,-0.108913 -0.67591,-0.400688 -0.31837,-0.291775 -0.59146,-0.764781 -0.25966,-0.449735 -0.34928,-0.87358 -0.0919,-0.42772 -0.018,-0.801208 0.0755,-0.379595 0.30955,-0.690497 0.23182,-0.314772 0.61565,-0.536372 0.41097,-0.237275 0.77398,-0.271094 0.36689,-0.03606 0.68282,0.08136 0.31369,0.113548 0.57358,0.36671 0.26153,0.247051 0.45851,0.588231 z m -0.75328,0.1816 q -0.27939,-0.510718 -0.6815,-0.661085 -0.39827,-0.1526 -0.85964,0.11377 -0.2365,0.136545 -0.36336,0.328689 -0.12687,0.192131 -0.16199,0.408849 -0.0351,0.216724 0.0131,0.452505 0.046,0.231909 0.16133,0.449642 z"
       style="font-style:normal;font-variant:normal;font-weight:normal;font-stretch:normal;font-size:medium;line-height:1.25;font-family:Calibri;-inkscape-font-specification:Calibri;letter-spacing:-0.44722876px;word-spacing:0px;fill:#ffffff;fill-opacity:1;stroke:none;stroke-width:0.22921497"
       id="path852" />
    <path
       d="m 389.15769,36.887624 q 0.0179,0.031 0.0159,0.06325 0.002,0.03 -0.0241,0.06565 -0.0243,0.02951 -0.0741,0.06865 -0.0498,0.03915 -0.12732,0.0839 -0.0814,0.047 -0.14019,0.07055 -0.0588,0.02356 -0.10038,0.03209 -0.0439,0.0046 -0.0728,-0.0097 -0.029,-0.01435 -0.0469,-0.04535 l -0.26637,-0.461367 q -0.10292,0.457458 -0.3052,0.796537 -0.19841,0.336829 -0.55122,0.540524 -0.38383,0.221605 -0.74029,0.230967 -0.35869,0.0055 -0.67478,-0.148033 -0.31445,-0.159629 -0.58898,-0.456047 -0.27673,-0.300309 -0.49609,-0.680261 -0.25966,-0.449735 -0.37091,-0.866265 -0.11348,-0.420401 -0.0712,-0.785979 0.0422,-0.365565 0.24304,-0.662432 0.20244,-0.302982 0.57077,-0.515632 0.30628,-0.176835 0.63663,-0.186633 0.33201,-0.01591 0.73011,0.100591 l -1.1707,-2.027712 q -0.0156,-0.02711 -0.0175,-0.0571 -1.5e-4,-0.03606 0.0319,-0.07015 0.0299,-0.0379 0.0835,-0.07926 0.0553,-0.0474 0.14839,-0.101144 0.0969,-0.05596 0.16566,-0.08017 0.0665,-0.02801 0.11038,-0.03266 0.0416,-0.0085 0.0728,0.0097 0.0328,0.0121 0.0485,0.0392 z m -2.06051,-2.082611 q -0.44555,-0.171823 -0.78607,-0.197508 -0.33886,-0.03181 -0.6025,0.120405 -0.24426,0.14102 -0.3477,0.355817 -0.10343,0.214806 -0.10231,0.467453 0.005,0.25042 0.0934,0.519902 0.0923,0.267224 0.23554,0.515358 0.15221,0.263644 0.33651,0.493249 0.1881,0.227413 0.4031,0.366924 0.21273,0.135651 0.44883,0.159588 0.23387,0.02006 0.48588,-0.125434 0.12794,-0.07387 0.22411,-0.175926 0.10004,-0.10429 0.1771,-0.257336 0.0771,-0.153036 0.13889,-0.359336 0.0596,-0.210163 0.10111,-0.487443 z"
       style="font-style:normal;font-variant:normal;font-weight:normal;font-stretch:normal;font-size:medium;line-height:1.25;font-family:Calibri;-inkscape-font-specification:Calibri;letter-spacing:-0.44722876px;word-spacing:0px;fill:#ffffff;fill-opacity:1;stroke:none;stroke-width:0.22921497"
       id="path854" />
    <path
       d="m 390.51228,31.111891 q 0.19698,0.341179 0.25227,0.660783 0.0553,0.319604 -0.0117,0.606426 -0.067,0.28683 -0.25084,0.532535 -0.18382,0.245697 -0.47116,0.437447 l 0.51235,0.950022 q 0.0335,0.05811 -0.0183,0.129475 -0.0503,0.06516 -0.20147,0.152461 -0.0814,0.047 -0.14157,0.07712 -0.0627,0.02581 -0.10425,0.03433 -0.0438,0.0046 -0.0728,-0.0097 -0.029,-0.01435 -0.0469,-0.04535 l -0.64334,-1.060499 q -0.055,-0.08718 -0.0712,-0.150148 -0.0142,-0.0694 5.7e-4,-0.124405 0.0125,-0.05895 0.0601,-0.101888 0.0453,-0.04685 0.11511,-0.08713 l 0.0853,-0.04925 q 0.252,-0.145495 0.3856,-0.325975 0.13134,-0.184371 0.16379,-0.378886 0.0363,-0.196733 -0.0162,-0.404177 -0.0526,-0.207441 -0.16448,-0.401292 -0.1276,-0.221001 -0.29481,-0.367421 -0.16945,-0.1503 -0.36965,-0.210473 -0.20241,-0.06407 -0.43492,-0.02805 -0.22865,0.03375 -0.48453,0.181481 -0.22487,0.12983 -0.36636,0.278723 -0.13987,0.142761 -0.23035,0.272562 -0.0905,0.129821 -0.14504,0.22332 -0.0507,0.09126 -0.0895,0.113655 -0.0271,0.01565 -0.0571,0.0175 -0.0261,-4.05e-4 -0.0595,-0.02246 -0.0357,-0.02595 -0.0748,-0.07572 -0.0413,-0.05361 -0.0906,-0.138957 -0.0537,-0.09305 -0.069,-0.146268 -0.0175,-0.0571 0.001,-0.114404 0.0164,-0.0612 0.0914,-0.181985 0.0766,-0.126923 0.2026,-0.266886 0.12986,-0.142178 0.29581,-0.284524 0.16983,-0.144586 0.37144,-0.260986 0.41484,-0.23951 0.78278,-0.291674 0.36567,-0.05605 0.67593,0.03364 0.31025,0.08969 0.55999,0.307366 0.24974,0.21767 0.42434,0.520077 z m 0.76032,4.146306 q 0.0739,0.127946 0.10372,0.224441 0.0315,0.09036 0.0163,0.171498 -0.0174,0.07725 -0.0876,0.143671 -0.0641,0.06805 -0.1804,0.135216 -0.12407,0.07163 -0.21506,0.0931 -0.0887,0.02535 -0.16824,0.0041 -0.0779,-0.02745 -0.14425,-0.09765 -0.0648,-0.07635 -0.13862,-0.204291 -0.0739,-0.127947 -0.10761,-0.222192 -0.0321,-0.100366 -0.0124,-0.173747 0.0213,-0.0795 0.0876,-0.143667 0.0641,-0.06805 0.18816,-0.139696 0.11632,-0.06715 0.2073,-0.08862 0.0926,-0.0276 0.16825,-0.0041 0.0734,0.01966 0.14035,0.0999 0.0686,0.0741 0.14251,0.202042 z"
       style="font-style:normal;font-variant:normal;font-weight:normal;font-stretch:normal;font-size:medium;line-height:1.25;font-family:Calibri;-inkscape-font-specification:Calibri;letter-spacing:-0.44722876px;word-spacing:0px;fill:#ffffff;fill-opacity:1;stroke:none;stroke-width:0.22921497"
       id="path856" />
  </g>
</svg>
